<svg xmlns="http://www.w3.org/2000/svg" width="56" height="56" viewBox="0 0 56 56" style="fill:#fff9df"><path data-name="シェイプ 1485" d="M48.809 42.129l-9.664-4.866-.822-4.92a8.163 8.163 0 0 0-4.136-5.816l-2.267-1.24a8.2 8.2 0 0 0-7.871 0l-2.266 1.24a8.164 8.164 0 0 0-4.137 5.816l-.822 4.92-9.664 4.866a.312.312 0 0 0 .141.59h41.367a.312.312 0 0 0 .141-.59zM22.551 28.465h4.456l-.022 1.116h-4.508zm-3.065 2.174h4.362l-.066 1.148h-4.507zm-1.124 6.471l.659-3.942h17.946l.64 3.942H18.362z" style="fill-rule:evenodd"/></svg>