<svg data-name="レイヤー 1" xmlns="http://www.w3.org/2000/svg" viewBox="0 0 160 160" width="160" height="160" style="fill:#fc0d1b"><path style="fill:none" d="M0 0h160v160H0z"/><path d="M127.48 45.56h-95a3.77 3.77 0 0 0-3.77 3.78v61.32a3.77 3.77 0 0 0 3.77 3.78h95a3.77 3.77 0 0 0 3.77-3.78V49.34a3.77 3.77 0 0 0-3.77-3.78zM48 101.59a.53.53 0 0 1-.53.53h-8.1a.53.53 0 0 1-.53-.53v-7.73a.53.53 0 0 1 .53-.53h8.05a.53.53 0 0 1 .53.53zm0-17.16a.53.53 0 0 1-.53.53h-8.1a.53.53 0 0 1-.53-.53V76.7a.53.53 0 0 1 .53-.53h8.05a.53.53 0 0 1 .53.53zm0-17.16a.53.53 0 0 1-.53.53h-8.1a.53.53 0 0 1-.53-.53v-7.73a.53.53 0 0 1 .53-.53h8.05a.53.53 0 0 1 .53.53zm42.5 13L71.71 92.14a.28.28 0 0 1-.43-.23V68.09a.28.28 0 0 1 .43-.23l18.74 11.9a.28.28 0 0 1 0 .48zm30.71 21.35a.53.53 0 0 1-.53.53h-8a.53.53 0 0 1-.53-.53v-7.76a.53.53 0 0 1 .53-.53h8a.53.53 0 0 1 .53.53zm0-17.16a.53.53 0 0 1-.53.53h-8a.53.53 0 0 1-.53-.53V76.7a.53.53 0 0 1 .53-.53h8a.53.53 0 0 1 .53.53zm0-17.16a.53.53 0 0 1-.53.53h-8a.53.53 0 0 1-.53-.53v-7.76a.53.53 0 0 1 .53-.53h8a.53.53 0 0 1 .53.53z"/></svg>