<svg version="1.1" id="レイヤー_1" xmlns="http://www.w3.org/2000/svg" x="0" y="0" viewBox="0 0 104.4 76.8" style="enable-background:new 0 0 104.4 76.8;fill:#fff" xml:space="preserve"><style>.st1{stroke:#fff;stroke-width:2;stroke-linecap:round;stroke-linejoin:round}</style><path style="fill:none" d="M-27.8-41.6h160v160h-160z"/><path d="M74.6 68.9c.4.2.6.7.4 1.1-3.4 6.2-11.1 8.5-17.4 5.2-5.7-3.1-8.2-9.9-5.8-15.9.2-.4.6-.6 1-.5h.1l21.7 10.1zm25.4 5.7l-5.2-12.8c-.6-1.5-.6-3.2.1-4.6l7.2-15.5c4.8-10.6 1.7-23.1-7.5-30.2L96 8.6c1.4-3 .1-6.6-3-8-3-1.4-6.6-.1-8 3l-1.4 2.9C72.3 4 60.8 9.7 55.8 20.2l-7.2 15.5c-.7 1.5-1.9 2.6-3.4 3.1L32 43c-.8.3-1.3 1.2-1 2 .1.4.4.7.8.9l66.1 30.7c.8.4 1.7 0 2.1-.8.2-.4.2-.8 0-1.2z"/><path class="st1" d="M22.6 58.5c-9.6-9.6-9.6-25.2 0-34.9l1.9 1.9c-8.7 8.5-8.7 22.5-.1 31.1l.1.1-1.9 1.8z"/><path class="st1" d="M11.6 66.4c-14-14-14-36.7 0-50.7l1.9 1.9c-12.9 13-12.9 34 0 47l-1.9 1.8z"/></svg>