<svg xmlns="http://www.w3.org/2000/svg" width="26" height="26" viewBox="0 0 26 26"><path d="M13 2.34c3.47 0 3.88.02 5.25.08a7.224 7.224 0 0 1 2.42.45 4.3 4.3 0 0 1 2.46 2.46 7.224 7.224 0 0 1 .45 2.42c.06 1.37.08 1.78.08 5.25s-.02 3.88-.08 5.25a7.224 7.224 0 0 1-.45 2.42 4.3 4.3 0 0 1-2.46 2.46 7.224 7.224 0 0 1-2.42.45c-1.37.06-1.78.08-5.25.08s-3.88-.02-5.25-.08a7.224 7.224 0 0 1-2.42-.45 4.3 4.3 0 0 1-2.46-2.46 7.224 7.224 0 0 1-.45-2.42c-.06-1.37-.08-1.78-.08-5.25s.02-3.88.08-5.25a7.224 7.224 0 0 1 .45-2.42 4.3 4.3 0 0 1 2.46-2.46 7.224 7.224 0 0 1 2.42-.45c1.37-.06 1.78-.08 5.25-.08M13 0C9.47 0 9.03.01 7.64.08a9.454 9.454 0 0 0-3.15.6 6.643 6.643 0 0 0-3.81 3.8 9.574 9.574 0 0 0-.6 3.16C.01 9.03 0 9.47 0 13s.01 3.97.08 5.36a9.454 9.454 0 0 0 .6 3.15 6.622 6.622 0 0 0 3.81 3.81 9.454 9.454 0 0 0 3.15.6c1.39.06 1.83.08 5.36.08s3.97-.02 5.36-.08a9.574 9.574 0 0 0 3.16-.6 6.614 6.614 0 0 0 2.3-1.5 6.425 6.425 0 0 0 1.5-2.31 9.454 9.454 0 0 0 .6-3.15c.07-1.39.08-1.83.08-5.36s-.01-3.97-.08-5.36a9.574 9.574 0 0 0-.6-3.16 6.39 6.39 0 0 0-1.5-2.3 6.476 6.476 0 0 0-2.3-1.5 9.574 9.574 0 0 0-3.16-.6C16.97.01 16.53 0 13 0zm0 6.32A6.68 6.68 0 1 0 19.68 13 6.679 6.679 0 0 0 13 6.32zm0 11.01A4.33 4.33 0 1 1 17.33 13 4.332 4.332 0 0 1 13 17.33zm8.5-11.27a1.56 1.56 0 1 1-1.56-1.56 1.562 1.562 0 0 1 1.56 1.56z" style="fill:#fff;fill-rule:evenodd"/></svg>