<svg xmlns="http://www.w3.org/2000/svg" width="108.344" height="80.156" viewBox="0 0 108.344 80.156"><path d="M1.46 33.634c-2.1 3.984-2.539 8.863 3.179 17.4 9.618 14.352 9.809 24.384 12.752 26.4 1.906 1.3 7.762 6.712 16.01-2.76l-3.925-11.716s-5.825.929-7.027 2.355-.326 2.835-1.557 3.128-2.019-.734-1.956-1.951.644-3.531 8.584-5.481 25.212-3 30.462-2.392 23.937.639 30.855-1.222 16.56-6.958 18.732-10.184c2.047-3.041-.036-9.56-5.887-17.567-1.559-2.134-3.923-7.629-5.1-11.319-.856-2.692-3.931-15.617-3.931-15.617s-8.7-7.7-16.01 2.76l3.929 11.707s7.4-1.507 8.976-4.31 3.156-2.6 3.514-1.178-2.419 3.2-6.242 4.7-13.021 5.3-24.207 5.507-29.648-.262-36.324.448S5.352 26.265 1.46 33.634z" style="fill-rule:evenodd;fill:#fff"/><path d="M47.179 48.098c-.029-.375-.713-9.4-.735-10.73-.038-1.544.373-2.665 1.31-3.113l-.006-.08-.394.03c-.729.055-1.413.187-2.636.279a22.12 22.12 0 0 1-1.721.051l.006.079c1.584.494 1.768 2.661 2.087 6.86l.2 2.622c-.614-1.044-4.348-7.66-5.071-9.35-.218 0-.4.01-.593.025-.611.046-1.591.2-2.715.285-.591.045-1.165.069-1.621.063l.004.081c1.623.491 1.764 2.6 2.1 7.058.289 3.8.352 5.684-1.065 6.6v.059c.238 0 .455-.015.691-.033.69-.052 1.515-.155 2.441-.225a36.49 36.49 0 0 1 1.618-.1V48.5c-1.024-.438-1.543-1.786-1.773-3.514-.25-1.984-.534-5.729-.636-6.812.807 1.485 5.149 9.067 5.706 10.135.432-.053.963-.113 1.5-.153a29.43 29.43 0 0 1 1.303-.058zm12.09-3.123c-.056-.472-.105-.864-.141-1.338-.029-.374-.042-.81-.059-1.3l-.079.006c-.585 2.483-2.228 3.3-4.365 3.623-.353.047-1.222.093-1.222.093-.093-.706-.218-2.084-.339-3.684l-.084-1.1c.217-.016.592-.045.968-.053a2.737 2.737 0 0 1 2.541 1.869h.059c-.107-.626-.238-1.31-.3-2.1a9.367 9.367 0 0 1-.036-.731c-.02-.792 0-1.547-.052-2.256a5.37 5.37 0 0 0-.063-.57h-.059a2.858 2.858 0 0 1-2.172 2.207 8.649 8.649 0 0 1-1 .135c-.134-1.775-.248-3.273-.272-4.401l1.025-.078c1.7-.069 3.79.307 4.636 2.563h.059c-.051-.412-.077-.748-.1-1.024-.034-.454-.043-.83-.062-1.344-.03-.652-.02-1.049-.049-1.424-.017-.217-.053-.432-.09-.667-.317 0-.691.033-1.125.066-1.183.09-2.658.241-3.564.33-.826.083-1.909.184-2.994.267-.808.061-1.618.1-2.352.1l.006.079c.938.345 1.5 1.254 1.715 3 .153 1.237.337 2.611.449 4.09.055.729.074 1.5.093 2.273.058 2.335-.184 3.583-1.221 4.3v.059c.4-.01.889-.048 1.441-.09 1.341-.1 2.993-.267 4.252-.4.649-.069 1.318-.14 2.008-.192.966-.073 1.914-.125 2.689-.1a9.267 9.267 0 0 0-.041-1.068 18.303 18.303 0 0 0-.1-1.14zM76.54 31.991c-.89.028-1.436.149-2.223.228s-1.559.1-2.272.113l.006.079a2.25 2.25 0 0 1 1.149 2.074 6.67 6.67 0 0 1-.068 1.453c-.273 2.677-.641 5.4-.812 6.8-.7-1.969-2.663-7.927-3.211-10.185-.235.038-.669.071-1.142.106s-.946.072-1.263.076c-.156 2.391-1.021 9.535-1.2 10.521-.446-1.433-1.314-4.778-1.914-6.933a6.288 6.288 0 0 1-.279-1.327 1.933 1.933 0 0 1 .9-1.972l-.007-.1c-.91.029-1.811.177-2.755.269l-.69.052c-.749.057-1.579.1-2.193.107l.006.079c.909.486 1.569 1.864 2.026 3.177.813 2.357 2.971 9.371 3.155 10.229.432-.053.924-.11 1.436-.149s1.007-.057 1.442-.07c.1-1.355.846-7.143 1.093-8.589.783 1.963 2.484 7.386 2.712 8.3a42.622 42.622 0 0 1 1.732-.171 11.326 11.326 0 0 1 1.225-.053c.088-1.2 1.2-8.537 1.579-10.549.3-1.569.751-2.912 1.579-3.49z" style="fill:#fc0d1b;fill-rule:evenodd"/></svg>